<mxfile host="app.diagrams.net" modified="2022-06-21T03:42:36.527Z" agent="5.0 (Macintosh; Intel Mac OS X 10_15_7) AppleWebKit/537.36 (KHTML, like Gecko) Chrome/102.0.5005.124 Safari/537.36 Edg/102.0.1245.41" etag="lg6UEF6cjXsma9xxs8Pc" version="20.0.1" type="github">
  <diagram id="C5RBs43oDa-KdzZeNtuy" name="Page-1">
    <mxGraphModel dx="2603" dy="1040" grid="1" gridSize="10" guides="1" tooltips="1" connect="1" arrows="1" fold="1" page="1" pageScale="1" pageWidth="827" pageHeight="1169" math="0" shadow="0">
      <root>
        <mxCell id="WIyWlLk6GJQsqaUBKTNV-0" />
        <mxCell id="WIyWlLk6GJQsqaUBKTNV-1" parent="WIyWlLk6GJQsqaUBKTNV-0" />
        <mxCell id="ASFFez9ZujurtMkVOaM4-4" value="" style="edgeStyle=orthogonalEdgeStyle;rounded=0;orthogonalLoop=1;jettySize=auto;html=1;" edge="1" parent="WIyWlLk6GJQsqaUBKTNV-1" source="ASFFez9ZujurtMkVOaM4-0" target="ASFFez9ZujurtMkVOaM4-3">
          <mxGeometry relative="1" as="geometry" />
        </mxCell>
        <mxCell id="ASFFez9ZujurtMkVOaM4-7" value="" style="edgeStyle=orthogonalEdgeStyle;rounded=0;orthogonalLoop=1;jettySize=auto;html=1;" edge="1" parent="WIyWlLk6GJQsqaUBKTNV-1" source="ASFFez9ZujurtMkVOaM4-0" target="ASFFez9ZujurtMkVOaM4-6">
          <mxGeometry relative="1" as="geometry" />
        </mxCell>
        <mxCell id="ASFFez9ZujurtMkVOaM4-10" value="" style="edgeStyle=orthogonalEdgeStyle;rounded=0;orthogonalLoop=1;jettySize=auto;html=1;startArrow=none;" edge="1" parent="WIyWlLk6GJQsqaUBKTNV-1" source="ASFFez9ZujurtMkVOaM4-11" target="ASFFez9ZujurtMkVOaM4-9">
          <mxGeometry relative="1" as="geometry" />
        </mxCell>
        <mxCell id="ASFFez9ZujurtMkVOaM4-0" value="App" style="rounded=1;whiteSpace=wrap;html=1;" vertex="1" parent="WIyWlLk6GJQsqaUBKTNV-1">
          <mxGeometry x="354" y="40" width="120" height="60" as="geometry" />
        </mxCell>
        <mxCell id="ASFFez9ZujurtMkVOaM4-3" value="&lt;meta charset=&quot;utf-8&quot;&gt;&lt;div style=&quot;color: rgb(0, 0, 0); background-color: rgb(255, 255, 255); font-family: Menlo, Monaco, &amp;quot;Courier New&amp;quot;, monospace; font-weight: normal; font-size: 12px; line-height: 18px;&quot;&gt;&lt;div&gt;&lt;span style=&quot;color: #800000;&quot;&gt;&amp;lt;&lt;/span&gt;&lt;span style=&quot;color: #267f99;&quot;&gt;Host&lt;/span&gt;&lt;span style=&quot;color: #800000;&quot;&gt;&amp;gt;&lt;/span&gt;&lt;/div&gt;&lt;div&gt;&lt;span style=&quot;color: #000000;&quot;&gt;            &lt;/span&gt;&lt;span style=&quot;color: #800000;&quot;&gt;&amp;lt;&lt;/span&gt;&lt;span style=&quot;color: #267f99;&quot;&gt;Navigation&lt;/span&gt;&lt;/div&gt;&lt;div&gt;&lt;span style=&quot;color: #000000;&quot;&gt;              &lt;/span&gt;&lt;span style=&quot;color: #ff0000;&quot;&gt;ref&lt;/span&gt;&lt;span style=&quot;color: #000000;&quot;&gt;=&lt;/span&gt;&lt;span style=&quot;color: #0000ff;&quot;&gt;{&lt;/span&gt;&lt;span style=&quot;color: #000000;&quot;&gt;(&lt;/span&gt;&lt;span style=&quot;color: #001080;&quot;&gt;navigatorRef&lt;/span&gt;&lt;span style=&quot;color: #000000;&quot;&gt;: &lt;/span&gt;&lt;span style=&quot;color: #267f99;&quot;&gt;any&lt;/span&gt;&lt;span style=&quot;color: #000000;&quot;&gt;) &lt;/span&gt;&lt;span style=&quot;color: #0000ff;&quot;&gt;=&amp;gt;&lt;/span&gt;&lt;span style=&quot;color: #000000;&quot;&gt; {&lt;/span&gt;&lt;/div&gt;&lt;div&gt;&lt;span style=&quot;color: #000000;&quot;&gt;                &lt;/span&gt;&lt;span style=&quot;color: #795e26;&quot;&gt;setTopLevelNavigator&lt;/span&gt;&lt;span style=&quot;color: #000000;&quot;&gt;(&lt;/span&gt;&lt;span style=&quot;color: #001080;&quot;&gt;navigatorRef&lt;/span&gt;&lt;span style=&quot;color: #000000;&quot;&gt;);&lt;/span&gt;&lt;/div&gt;&lt;div&gt;&lt;span style=&quot;color: #000000;&quot;&gt;              }&lt;/span&gt;&lt;span style=&quot;color: #0000ff;&quot;&gt;}&lt;/span&gt;&lt;/div&gt;&lt;div&gt;&lt;span style=&quot;color: #000000;&quot;&gt;              &lt;/span&gt;&lt;span style=&quot;color: #0000ff;&quot;&gt;{&lt;/span&gt;&lt;span style=&quot;color: #000000;&quot;&gt;...&lt;/span&gt;&lt;span style=&quot;color: #795e26;&quot;&gt;getPersistenceFunctions&lt;/span&gt;&lt;span style=&quot;color: #000000;&quot;&gt;()&lt;/span&gt;&lt;span style=&quot;color: #0000ff;&quot;&gt;}&lt;/span&gt;&lt;/div&gt;&lt;div&gt;&lt;span style=&quot;color: #000000;&quot;&gt;            &lt;/span&gt;&lt;span style=&quot;color: #800000;&quot;&gt;/&amp;gt;&lt;/span&gt;&lt;/div&gt;&lt;div&gt;&lt;span style=&quot;color: #000000;&quot;&gt;          &lt;/span&gt;&lt;span style=&quot;color: #800000;&quot;&gt;&amp;lt;/&lt;/span&gt;&lt;span style=&quot;color: #267f99;&quot;&gt;Host&lt;/span&gt;&lt;span style=&quot;color: #800000;&quot;&gt;&amp;gt;&lt;/span&gt;&lt;/div&gt;&lt;/div&gt;" style="whiteSpace=wrap;html=1;rounded=1;align=left;" vertex="1" parent="WIyWlLk6GJQsqaUBKTNV-1">
          <mxGeometry x="60" y="250" width="80" height="60" as="geometry" />
        </mxCell>
        <mxCell id="ASFFez9ZujurtMkVOaM4-5" value="isWeb" style="text;html=1;strokeColor=none;fillColor=none;align=center;verticalAlign=middle;whiteSpace=wrap;rounded=0;" vertex="1" parent="WIyWlLk6GJQsqaUBKTNV-1">
          <mxGeometry x="60" y="170" width="60" height="30" as="geometry" />
        </mxCell>
        <mxCell id="ASFFez9ZujurtMkVOaM4-21" style="edgeStyle=orthogonalEdgeStyle;rounded=0;orthogonalLoop=1;jettySize=auto;html=1;" edge="1" parent="WIyWlLk6GJQsqaUBKTNV-1" source="ASFFez9ZujurtMkVOaM4-6" target="ASFFez9ZujurtMkVOaM4-20">
          <mxGeometry relative="1" as="geometry" />
        </mxCell>
        <mxCell id="ASFFez9ZujurtMkVOaM4-6" value="&lt;div style=&quot;background-color: rgb(255, 255, 255); font-family: Menlo, Monaco, &amp;quot;Courier New&amp;quot;, monospace; line-height: 18px;&quot;&gt;&lt;div&gt; &lt;span style=&quot;color: #800000;&quot;&gt;&amp;lt;&lt;/span&gt;&lt;span style=&quot;color: #267f99;&quot;&gt;Host&lt;/span&gt;&lt;span style=&quot;color: #800000;&quot;&gt;&amp;gt;&lt;/span&gt;&lt;/div&gt;&lt;div&gt;            &lt;span style=&quot;color: #800000;&quot;&gt;&amp;lt;&lt;/span&gt;&lt;span style=&quot;color: #267f99;&quot;&gt;BoardingNavigator&lt;/span&gt;&lt;/div&gt;&lt;div&gt;              &lt;span style=&quot;color: #ff0000;&quot;&gt;ref&lt;/span&gt;=&lt;span style=&quot;color: #0000ff;&quot;&gt;{&lt;/span&gt;(&lt;span style=&quot;color: #001080;&quot;&gt;navigatorRef&lt;/span&gt;: &lt;span style=&quot;color: #267f99;&quot;&gt;any&lt;/span&gt;) &lt;span style=&quot;color: #0000ff;&quot;&gt;=&amp;gt;&lt;/span&gt; {&lt;/div&gt;&lt;div&gt;                &lt;span style=&quot;color: #795e26;&quot;&gt;setTopLevelNavigator&lt;/span&gt;(&lt;span style=&quot;color: #001080;&quot;&gt;navigatorRef&lt;/span&gt;);&lt;/div&gt;&lt;div&gt;              }&lt;span style=&quot;color: #0000ff;&quot;&gt;}&lt;/span&gt;&lt;/div&gt;&lt;div&gt;              &lt;span style=&quot;color: #0000ff;&quot;&gt;{&lt;/span&gt;...&lt;span style=&quot;color: #795e26;&quot;&gt;getPersistenceFunctions&lt;/span&gt;()&lt;span style=&quot;color: #0000ff;&quot;&gt;}&lt;/span&gt;&lt;/div&gt;&lt;div&gt;            &lt;span style=&quot;color: #800000;&quot;&gt;/&amp;gt;&lt;/span&gt;&lt;/div&gt;&lt;div&gt;          &lt;span style=&quot;color: #800000;&quot;&gt;&amp;lt;/&lt;/span&gt;&lt;span style=&quot;color: #267f99;&quot;&gt;Host&lt;/span&gt;&lt;span style=&quot;color: #800000;&quot;&gt;&amp;gt;&lt;/span&gt;&lt;/div&gt;&lt;/div&gt;" style="whiteSpace=wrap;html=1;rounded=1;align=left;" vertex="1" parent="WIyWlLk6GJQsqaUBKTNV-1">
          <mxGeometry x="353.5" y="260" width="120" height="60" as="geometry" />
        </mxCell>
        <mxCell id="ASFFez9ZujurtMkVOaM4-8" value="&lt;div style=&quot;background-color: rgb(255, 255, 255); font-family: Menlo, Monaco, &amp;quot;Courier New&amp;quot;, monospace; line-height: 18px;&quot;&gt;&lt;span style=&quot;color: #001080;&quot;&gt;globalHelpers&lt;/span&gt;.&lt;span style=&quot;color: #795e26;&quot;&gt;getEnv&lt;/span&gt;().&lt;span style=&quot;color: #001080;&quot;&gt;newUser&lt;/span&gt;&lt;/div&gt;" style="text;html=1;align=center;verticalAlign=middle;resizable=0;points=[];autosize=1;strokeColor=none;fillColor=none;" vertex="1" parent="WIyWlLk6GJQsqaUBKTNV-1">
          <mxGeometry x="320" y="160" width="230" height="20" as="geometry" />
        </mxCell>
        <mxCell id="ASFFez9ZujurtMkVOaM4-14" value="" style="edgeStyle=orthogonalEdgeStyle;rounded=0;orthogonalLoop=1;jettySize=auto;html=1;" edge="1" parent="WIyWlLk6GJQsqaUBKTNV-1" source="ASFFez9ZujurtMkVOaM4-9" target="ASFFez9ZujurtMkVOaM4-13">
          <mxGeometry relative="1" as="geometry" />
        </mxCell>
        <mxCell id="ASFFez9ZujurtMkVOaM4-17" value="" style="edgeStyle=orthogonalEdgeStyle;rounded=0;orthogonalLoop=1;jettySize=auto;html=1;" edge="1" parent="WIyWlLk6GJQsqaUBKTNV-1" source="ASFFez9ZujurtMkVOaM4-9" target="ASFFez9ZujurtMkVOaM4-11">
          <mxGeometry relative="1" as="geometry" />
        </mxCell>
        <mxCell id="ASFFez9ZujurtMkVOaM4-9" value="&lt;div style=&quot;background-color: rgb(255, 255, 255); font-family: Menlo, Monaco, &amp;quot;Courier New&amp;quot;, monospace; line-height: 18px;&quot;&gt;&lt;div&gt; &lt;span style=&quot;color: #800000;&quot;&gt;&amp;lt;&lt;/span&gt;&lt;span style=&quot;color: #267f99;&quot;&gt;Host&lt;/span&gt;&lt;span style=&quot;color: #800000;&quot;&gt;&amp;gt;&lt;/span&gt;&lt;/div&gt;&lt;div&gt;            &lt;span style=&quot;color: #800000;&quot;&gt;&amp;lt;&lt;/span&gt;&lt;span style=&quot;color: #267f99;&quot;&gt;Navigation&lt;/span&gt;&lt;/div&gt;&lt;div&gt;              &lt;span style=&quot;color: #ff0000;&quot;&gt;ref&lt;/span&gt;=&lt;span style=&quot;color: #0000ff;&quot;&gt;{&lt;/span&gt;(&lt;span style=&quot;color: #001080;&quot;&gt;navigatorRef&lt;/span&gt;: &lt;span style=&quot;color: #267f99;&quot;&gt;any&lt;/span&gt;) &lt;span style=&quot;color: #0000ff;&quot;&gt;=&amp;gt;&lt;/span&gt; {&lt;/div&gt;&lt;div&gt;                &lt;span style=&quot;color: #795e26;&quot;&gt;setTopLevelNavigator&lt;/span&gt;(&lt;span style=&quot;color: #001080;&quot;&gt;navigatorRef&lt;/span&gt;);&lt;/div&gt;&lt;div&gt;              }&lt;span style=&quot;color: #0000ff;&quot;&gt;}&lt;/span&gt;&lt;/div&gt;&lt;div&gt;              &lt;span style=&quot;color: #0000ff;&quot;&gt;{&lt;/span&gt;...&lt;span style=&quot;color: #795e26;&quot;&gt;getPersistenceFunctions&lt;/span&gt;()&lt;span style=&quot;color: #0000ff;&quot;&gt;}&lt;/span&gt;&lt;/div&gt;&lt;div&gt;            &lt;span style=&quot;color: #800000;&quot;&gt;/&amp;gt;&lt;/span&gt;&lt;/div&gt;&lt;div&gt;          &lt;span style=&quot;color: #800000;&quot;&gt;&amp;lt;/&lt;/span&gt;&lt;span style=&quot;color: #267f99;&quot;&gt;Host&lt;/span&gt;&lt;span style=&quot;color: #800000;&quot;&gt;&amp;gt;&lt;/span&gt;&lt;/div&gt;&lt;/div&gt;" style="whiteSpace=wrap;html=1;rounded=1;align=left;" vertex="1" parent="WIyWlLk6GJQsqaUBKTNV-1">
          <mxGeometry x="680" y="250" width="120" height="60" as="geometry" />
        </mxCell>
        <mxCell id="ASFFez9ZujurtMkVOaM4-11" value="old user" style="text;html=1;align=center;verticalAlign=middle;resizable=0;points=[];autosize=1;strokeColor=none;fillColor=none;" vertex="1" parent="WIyWlLk6GJQsqaUBKTNV-1">
          <mxGeometry x="710" y="130" width="60" height="20" as="geometry" />
        </mxCell>
        <mxCell id="ASFFez9ZujurtMkVOaM4-12" value="" style="edgeStyle=orthogonalEdgeStyle;rounded=0;orthogonalLoop=1;jettySize=auto;html=1;endArrow=none;" edge="1" parent="WIyWlLk6GJQsqaUBKTNV-1" source="ASFFez9ZujurtMkVOaM4-0" target="ASFFez9ZujurtMkVOaM4-11">
          <mxGeometry relative="1" as="geometry">
            <mxPoint x="474" y="70" as="sourcePoint" />
            <mxPoint x="740" y="250" as="targetPoint" />
          </mxGeometry>
        </mxCell>
        <mxCell id="ASFFez9ZujurtMkVOaM4-16" value="" style="edgeStyle=orthogonalEdgeStyle;rounded=0;orthogonalLoop=1;jettySize=auto;html=1;" edge="1" parent="WIyWlLk6GJQsqaUBKTNV-1" source="ASFFez9ZujurtMkVOaM4-13" target="ASFFez9ZujurtMkVOaM4-15">
          <mxGeometry relative="1" as="geometry" />
        </mxCell>
        <mxCell id="ASFFez9ZujurtMkVOaM4-35" style="edgeStyle=orthogonalEdgeStyle;rounded=0;orthogonalLoop=1;jettySize=auto;html=1;entryX=1;entryY=0.65;entryDx=0;entryDy=0;entryPerimeter=0;fontColor=#3333FF;" edge="1" parent="WIyWlLk6GJQsqaUBKTNV-1" source="ASFFez9ZujurtMkVOaM4-13" target="ASFFez9ZujurtMkVOaM4-30">
          <mxGeometry relative="1" as="geometry" />
        </mxCell>
        <mxCell id="ASFFez9ZujurtMkVOaM4-36" style="edgeStyle=orthogonalEdgeStyle;rounded=0;orthogonalLoop=1;jettySize=auto;html=1;entryX=1.025;entryY=0.65;entryDx=0;entryDy=0;fontColor=#3333FF;entryPerimeter=0;" edge="1" parent="WIyWlLk6GJQsqaUBKTNV-1" source="ASFFez9ZujurtMkVOaM4-13" target="ASFFez9ZujurtMkVOaM4-31">
          <mxGeometry relative="1" as="geometry" />
        </mxCell>
        <mxCell id="ASFFez9ZujurtMkVOaM4-38" value="" style="edgeStyle=orthogonalEdgeStyle;rounded=0;orthogonalLoop=1;jettySize=auto;html=1;fontColor=#3333FF;" edge="1" parent="WIyWlLk6GJQsqaUBKTNV-1" source="ASFFez9ZujurtMkVOaM4-13" target="ASFFez9ZujurtMkVOaM4-37">
          <mxGeometry relative="1" as="geometry" />
        </mxCell>
        <mxCell id="ASFFez9ZujurtMkVOaM4-40" value="" style="edgeStyle=orthogonalEdgeStyle;rounded=0;orthogonalLoop=1;jettySize=auto;html=1;fontColor=#3333FF;" edge="1" parent="WIyWlLk6GJQsqaUBKTNV-1" source="ASFFez9ZujurtMkVOaM4-13" target="ASFFez9ZujurtMkVOaM4-39">
          <mxGeometry relative="1" as="geometry">
            <Array as="points">
              <mxPoint x="860" y="680" />
              <mxPoint x="1280" y="680" />
            </Array>
          </mxGeometry>
        </mxCell>
        <mxCell id="ASFFez9ZujurtMkVOaM4-13" value="&lt;div style=&quot;background-color: rgb(255, 255, 255); font-family: Menlo, Monaco, &amp;quot;Courier New&amp;quot;, monospace; line-height: 18px;&quot;&gt;&lt;span style=&quot;color: #0070c1;&quot;&gt;Navigator&lt;/span&gt;&lt;/div&gt;&lt;div style=&quot;background-color: rgb(255, 255, 255); font-family: Menlo, Monaco, &amp;quot;Courier New&amp;quot;, monospace; line-height: 18px;&quot;&gt;&lt;font color=&quot;#ff0000&quot;&gt;createAppContainer&lt;/font&gt;&lt;/div&gt;&lt;div style=&quot;background-color: rgb(255, 255, 255); font-family: Menlo, Monaco, &amp;quot;Courier New&amp;quot;, monospace; line-height: 18px;&quot;&gt;&lt;div style=&quot;line-height: 18px;&quot;&gt;&lt;font color=&quot;#ff0000&quot;&gt;createAnimatedSwitchNavigator&lt;/font&gt;&lt;/div&gt;&lt;/div&gt;" style="whiteSpace=wrap;html=1;align=left;rounded=1;" vertex="1" parent="WIyWlLk6GJQsqaUBKTNV-1">
          <mxGeometry x="800" y="530" width="120" height="60" as="geometry" />
        </mxCell>
        <mxCell id="ASFFez9ZujurtMkVOaM4-15" value="&lt;div style=&quot;background-color: rgb(255, 255, 255); font-family: Menlo, Monaco, &amp;quot;Courier New&amp;quot;, monospace; line-height: 18px;&quot;&gt;&lt;div&gt;&lt;span style=&quot;color: #0000ff;&quot;&gt;const&lt;/span&gt; &lt;span style=&quot;color: #0070c1;&quot;&gt;Navigator&lt;/span&gt; = &lt;span style=&quot;color: #795e26;&quot;&gt;createApp&lt;/span&gt;(&lt;/div&gt;&lt;div&gt;  &lt;span style=&quot;color: #795e26;&quot;&gt;createAnimatedSwitchNavigator&lt;/span&gt;(&lt;/div&gt;&lt;div&gt;    {&lt;/div&gt;&lt;div&gt;      &lt;span style=&quot;color: #267f99;&quot;&gt;onBoarding&lt;/span&gt;&lt;span style=&quot;color: #001080;&quot;&gt;:&lt;/span&gt; &lt;span style=&quot;color: #267f99;&quot;&gt;onBoardingNavigator&lt;/span&gt;,&lt;/div&gt;&lt;div&gt;      &lt;span style=&quot;color: #267f99;&quot;&gt;main&lt;/span&gt;&lt;span style=&quot;color: #001080;&quot;&gt;:&lt;/span&gt; &lt;span style=&quot;color: #267f99;&quot;&gt;mainNavigator&lt;/span&gt;,&lt;/div&gt;&lt;div&gt;      &lt;span style=&quot;color: #267f99;&quot;&gt;entrance&lt;/span&gt;&lt;span style=&quot;color: #001080;&quot;&gt;:&lt;/span&gt; &lt;span style=&quot;color: #267f99;&quot;&gt;entranceNavigator&lt;/span&gt;,&lt;/div&gt;&lt;div&gt;      &lt;span style=&quot;color: #267f99;&quot;&gt;commonUI&lt;/span&gt;&lt;span style=&quot;color: #001080;&quot;&gt;:&lt;/span&gt; &lt;span style=&quot;color: #267f99;&quot;&gt;CommonUIStack&lt;/span&gt;&lt;/div&gt;&lt;div&gt;    },&lt;/div&gt;&lt;div&gt;    {&lt;/div&gt;&lt;div&gt;      &lt;span style=&quot;color: #001080;&quot;&gt;initialRouteName&lt;/span&gt;&lt;span style=&quot;color: #001080;&quot;&gt;:&lt;/span&gt; &lt;span style=&quot;color: #a31515;&quot;&gt;&#39;entrance&#39;&lt;/span&gt;,&lt;/div&gt;&lt;div&gt;      &lt;span style=&quot;color: #001080;&quot;&gt;transition&lt;/span&gt;&lt;span style=&quot;color: #001080;&quot;&gt;:&lt;/span&gt; (&lt;/div&gt;&lt;div&gt;        &lt;span style=&quot;color: #800000;&quot;&gt;&amp;lt;&lt;/span&gt;&lt;span style=&quot;color: #267f99;&quot;&gt;Transition.Together&lt;/span&gt;&lt;span style=&quot;color: #800000;&quot;&gt;&amp;gt;&lt;/span&gt;&lt;/div&gt;&lt;div&gt;          &lt;span style=&quot;color: #800000;&quot;&gt;&amp;lt;&lt;/span&gt;&lt;span style=&quot;color: #267f99;&quot;&gt;Transition.Out&lt;/span&gt; &lt;span style=&quot;color: #ff0000;&quot;&gt;type&lt;/span&gt;=&lt;span style=&quot;color: #a31515;&quot;&gt;&quot;slide-left&quot;&lt;/span&gt; &lt;span style=&quot;color: #ff0000;&quot;&gt;durationMs&lt;/span&gt;=&lt;span style=&quot;color: #0000ff;&quot;&gt;{&lt;/span&gt;&lt;span style=&quot;color: #098658;&quot;&gt;300&lt;/span&gt;&lt;span style=&quot;color: #0000ff;&quot;&gt;}&lt;/span&gt; &lt;span style=&quot;color: #ff0000;&quot;&gt;interpolation&lt;/span&gt;=&lt;span style=&quot;color: #a31515;&quot;&gt;&quot;easeIn&quot;&lt;/span&gt; &lt;span style=&quot;color: #800000;&quot;&gt;/&amp;gt;&lt;/span&gt;&lt;/div&gt;&lt;div&gt;          &lt;span style=&quot;color: #800000;&quot;&gt;&amp;lt;&lt;/span&gt;&lt;span style=&quot;color: #267f99;&quot;&gt;Transition.In&lt;/span&gt; &lt;span style=&quot;color: #ff0000;&quot;&gt;type&lt;/span&gt;=&lt;span style=&quot;color: #a31515;&quot;&gt;&quot;fade&quot;&lt;/span&gt; &lt;span style=&quot;color: #ff0000;&quot;&gt;durationMs&lt;/span&gt;=&lt;span style=&quot;color: #0000ff;&quot;&gt;{&lt;/span&gt;&lt;span style=&quot;color: #098658;&quot;&gt;200&lt;/span&gt;&lt;span style=&quot;color: #0000ff;&quot;&gt;}&lt;/span&gt; &lt;span style=&quot;color: #800000;&quot;&gt;/&amp;gt;&lt;/span&gt;&lt;/div&gt;&lt;div&gt;        &lt;span style=&quot;color: #800000;&quot;&gt;&amp;lt;/&lt;/span&gt;&lt;span style=&quot;color: #267f99;&quot;&gt;Transition.Together&lt;/span&gt;&lt;span style=&quot;color: #800000;&quot;&gt;&amp;gt;&lt;/span&gt;&lt;/div&gt;&lt;div&gt;      )&lt;/div&gt;&lt;div&gt;    }&lt;/div&gt;&lt;div&gt;  )&lt;/div&gt;&lt;div&gt;);&lt;/div&gt;&lt;/div&gt;" style="shape=document;whiteSpace=wrap;html=1;boundedLbl=1;align=left;rounded=1;" vertex="1" parent="WIyWlLk6GJQsqaUBKTNV-1">
          <mxGeometry x="1210" y="450" width="360" height="80" as="geometry" />
        </mxCell>
        <mxCell id="ASFFez9ZujurtMkVOaM4-23" value="" style="edgeStyle=orthogonalEdgeStyle;rounded=0;orthogonalLoop=1;jettySize=auto;html=1;" edge="1" parent="WIyWlLk6GJQsqaUBKTNV-1" source="ASFFez9ZujurtMkVOaM4-20" target="ASFFez9ZujurtMkVOaM4-22">
          <mxGeometry relative="1" as="geometry" />
        </mxCell>
        <mxCell id="ASFFez9ZujurtMkVOaM4-26" value="" style="edgeStyle=orthogonalEdgeStyle;rounded=0;orthogonalLoop=1;jettySize=auto;html=1;startArrow=none;" edge="1" parent="WIyWlLk6GJQsqaUBKTNV-1" source="ASFFez9ZujurtMkVOaM4-30" target="ASFFez9ZujurtMkVOaM4-25">
          <mxGeometry relative="1" as="geometry" />
        </mxCell>
        <mxCell id="ASFFez9ZujurtMkVOaM4-29" value="" style="edgeStyle=orthogonalEdgeStyle;rounded=0;orthogonalLoop=1;jettySize=auto;html=1;" edge="1" parent="WIyWlLk6GJQsqaUBKTNV-1" source="ASFFez9ZujurtMkVOaM4-20" target="ASFFez9ZujurtMkVOaM4-28">
          <mxGeometry relative="1" as="geometry" />
        </mxCell>
        <mxCell id="ASFFez9ZujurtMkVOaM4-20" value="&lt;div style=&quot;background-color: rgb(255, 255, 255); font-family: Menlo, Monaco, &amp;quot;Courier New&amp;quot;, monospace; line-height: 18px;&quot;&gt;&lt;span style=&quot;color: #0070c1;&quot;&gt;BoardingNavigator&lt;/span&gt;&lt;/div&gt;&lt;div style=&quot;background-color: rgb(255, 255, 255); font-family: Menlo, Monaco, &amp;quot;Courier New&amp;quot;, monospace; line-height: 18px;&quot;&gt;&lt;font color=&quot;#ff0000&quot;&gt;createAppContainer&lt;/font&gt;&lt;/div&gt;&lt;div style=&quot;background-color: rgb(255, 255, 255); font-family: Menlo, Monaco, &amp;quot;Courier New&amp;quot;, monospace; line-height: 18px;&quot;&gt;&lt;div style=&quot;line-height: 18px;&quot;&gt;&lt;font color=&quot;#ff0000&quot;&gt;createAnimatedSwitchNavigator&lt;/font&gt;&lt;/div&gt;&lt;/div&gt;" style="whiteSpace=wrap;html=1;align=left;rounded=1;" vertex="1" parent="WIyWlLk6GJQsqaUBKTNV-1">
          <mxGeometry x="354" y="530" width="120" height="60" as="geometry" />
        </mxCell>
        <mxCell id="ASFFez9ZujurtMkVOaM4-22" value="&lt;div style=&quot;background-color: rgb(255, 255, 255); font-family: Menlo, Monaco, &amp;quot;Courier New&amp;quot;, monospace; line-height: 18px;&quot;&gt;&lt;div&gt;&lt;span style=&quot;color: #af00db;&quot;&gt;export&lt;/span&gt; &lt;span style=&quot;color: #0000ff;&quot;&gt;const&lt;/span&gt; &lt;span style=&quot;color: #0070c1;&quot;&gt;BoardingNavigator&lt;/span&gt; = &lt;span style=&quot;color: #795e26;&quot;&gt;createApp&lt;/span&gt;(&lt;/div&gt;&lt;div&gt;  &lt;span style=&quot;color: #795e26;&quot;&gt;createAnimatedSwitchNavigator&lt;/span&gt;(&lt;/div&gt;&lt;div&gt;    { &lt;span style=&quot;color: #267f99;&quot;&gt;onBoarding&lt;/span&gt;&lt;span style=&quot;color: #001080;&quot;&gt;:&lt;/span&gt; &lt;span style=&quot;color: #267f99;&quot;&gt;onBoardingNavigator&lt;/span&gt;, &lt;span style=&quot;color: #267f99;&quot;&gt;main&lt;/span&gt;&lt;span style=&quot;color: #001080;&quot;&gt;:&lt;/span&gt; &lt;span style=&quot;color: #267f99;&quot;&gt;mainNavigator&lt;/span&gt; },&lt;/div&gt;&lt;div&gt;    {&lt;/div&gt;&lt;div&gt;      &lt;span style=&quot;color: #001080;&quot;&gt;initialRouteName&lt;/span&gt;&lt;span style=&quot;color: #001080;&quot;&gt;:&lt;/span&gt; &lt;span style=&quot;color: #a31515;&quot;&gt;&#39;onBoarding&#39;&lt;/span&gt;,&lt;/div&gt;&lt;div&gt;      &lt;span style=&quot;color: #001080;&quot;&gt;transition&lt;/span&gt;&lt;span style=&quot;color: #001080;&quot;&gt;:&lt;/span&gt; (&lt;/div&gt;&lt;div&gt;        &lt;span style=&quot;color: #800000;&quot;&gt;&amp;lt;&lt;/span&gt;&lt;span style=&quot;color: #267f99;&quot;&gt;Transition.Together&lt;/span&gt;&lt;span style=&quot;color: #800000;&quot;&gt;&amp;gt;&lt;/span&gt;&lt;/div&gt;&lt;div&gt;          &lt;span style=&quot;color: #800000;&quot;&gt;&amp;lt;&lt;/span&gt;&lt;span style=&quot;color: #267f99;&quot;&gt;Transition.Out&lt;/span&gt; &lt;span style=&quot;color: #ff0000;&quot;&gt;type&lt;/span&gt;=&lt;span style=&quot;color: #a31515;&quot;&gt;&quot;slide-left&quot;&lt;/span&gt; &lt;span style=&quot;color: #ff0000;&quot;&gt;durationMs&lt;/span&gt;=&lt;span style=&quot;color: #0000ff;&quot;&gt;{&lt;/span&gt;&lt;span style=&quot;color: #098658;&quot;&gt;300&lt;/span&gt;&lt;span style=&quot;color: #0000ff;&quot;&gt;}&lt;/span&gt; &lt;span style=&quot;color: #ff0000;&quot;&gt;interpolation&lt;/span&gt;=&lt;span style=&quot;color: #a31515;&quot;&gt;&quot;easeIn&quot;&lt;/span&gt; &lt;span style=&quot;color: #800000;&quot;&gt;/&amp;gt;&lt;/span&gt;&lt;/div&gt;&lt;div&gt;          &lt;span style=&quot;color: #800000;&quot;&gt;&amp;lt;&lt;/span&gt;&lt;span style=&quot;color: #267f99;&quot;&gt;Transition.In&lt;/span&gt; &lt;span style=&quot;color: #ff0000;&quot;&gt;type&lt;/span&gt;=&lt;span style=&quot;color: #a31515;&quot;&gt;&quot;fade&quot;&lt;/span&gt; &lt;span style=&quot;color: #ff0000;&quot;&gt;durationMs&lt;/span&gt;=&lt;span style=&quot;color: #0000ff;&quot;&gt;{&lt;/span&gt;&lt;span style=&quot;color: #098658;&quot;&gt;200&lt;/span&gt;&lt;span style=&quot;color: #0000ff;&quot;&gt;}&lt;/span&gt; &lt;span style=&quot;color: #800000;&quot;&gt;/&amp;gt;&lt;/span&gt;&lt;/div&gt;&lt;div&gt;        &lt;span style=&quot;color: #800000;&quot;&gt;&amp;lt;/&lt;/span&gt;&lt;span style=&quot;color: #267f99;&quot;&gt;Transition.Together&lt;/span&gt;&lt;span style=&quot;color: #800000;&quot;&gt;&amp;gt;&lt;/span&gt;&lt;/div&gt;&lt;div&gt;      )&lt;/div&gt;&lt;div&gt;    }&lt;/div&gt;&lt;div&gt;  )&lt;/div&gt;&lt;div&gt;);&lt;/div&gt;&lt;/div&gt;" style="shape=document;whiteSpace=wrap;html=1;boundedLbl=1;align=left;rounded=1;" vertex="1" parent="WIyWlLk6GJQsqaUBKTNV-1">
          <mxGeometry x="40" y="505" width="254" height="80" as="geometry" />
        </mxCell>
        <mxCell id="ASFFez9ZujurtMkVOaM4-44" value="" style="edgeStyle=orthogonalEdgeStyle;rounded=0;orthogonalLoop=1;jettySize=auto;html=1;fontColor=#3333FF;" edge="1" parent="WIyWlLk6GJQsqaUBKTNV-1" source="ASFFez9ZujurtMkVOaM4-25" target="ASFFez9ZujurtMkVOaM4-43">
          <mxGeometry relative="1" as="geometry" />
        </mxCell>
        <mxCell id="ASFFez9ZujurtMkVOaM4-47" value="" style="edgeStyle=orthogonalEdgeStyle;rounded=0;orthogonalLoop=1;jettySize=auto;html=1;fontColor=#3333FF;" edge="1" parent="WIyWlLk6GJQsqaUBKTNV-1" source="ASFFez9ZujurtMkVOaM4-25" target="ASFFez9ZujurtMkVOaM4-46">
          <mxGeometry relative="1" as="geometry" />
        </mxCell>
        <mxCell id="ASFFez9ZujurtMkVOaM4-48" value="&lt;div style=&quot;color: rgb(0, 0, 0); font-family: Menlo, Monaco, &amp;quot;Courier New&amp;quot;, monospace; font-size: 12px; line-height: 18px;&quot;&gt;&lt;span style=&quot;color: #001080;&quot;&gt;onBoardingModal&lt;/span&gt;&lt;/div&gt;" style="edgeLabel;html=1;align=center;verticalAlign=middle;resizable=0;points=[];fontColor=#3333FF;" vertex="1" connectable="0" parent="ASFFez9ZujurtMkVOaM4-47">
          <mxGeometry x="-0.4412" y="1" relative="1" as="geometry">
            <mxPoint as="offset" />
          </mxGeometry>
        </mxCell>
        <mxCell id="ASFFez9ZujurtMkVOaM4-25" value="&lt;div style=&quot;background-color: rgb(255, 255, 255); font-family: Menlo, Monaco, &amp;quot;Courier New&amp;quot;, monospace; line-height: 18px;&quot;&gt;&lt;span style=&quot;color: #267f99;&quot;&gt;onBoardingNavigator&lt;/span&gt;&lt;/div&gt;&lt;div style=&quot;background-color: rgb(255, 255, 255); font-family: Menlo, Monaco, &amp;quot;Courier New&amp;quot;, monospace; line-height: 18px;&quot;&gt;&lt;div style=&quot;line-height: 18px;&quot;&gt;&lt;font color=&quot;#ff0000&quot;&gt;createStackNavigator&lt;/font&gt;&lt;/div&gt;&lt;/div&gt;" style="whiteSpace=wrap;html=1;align=left;rounded=1;" vertex="1" parent="WIyWlLk6GJQsqaUBKTNV-1">
          <mxGeometry x="354" y="770" width="120" height="60" as="geometry" />
        </mxCell>
        <mxCell id="ASFFez9ZujurtMkVOaM4-28" value="&lt;div style=&quot;background-color: rgb(255, 255, 255); font-family: Menlo, Monaco, &amp;quot;Courier New&amp;quot;, monospace; line-height: 18px;&quot;&gt;&lt;span style=&quot;color: #267f99;&quot;&gt;mainNavigator&lt;br&gt;&lt;/span&gt;&lt;div style=&quot;line-height: 18px;&quot;&gt;&lt;font color=&quot;#ff0000&quot;&gt;createStackNavigator&lt;/font&gt;&lt;/div&gt;&lt;/div&gt;" style="whiteSpace=wrap;html=1;align=left;rounded=1;" vertex="1" parent="WIyWlLk6GJQsqaUBKTNV-1">
          <mxGeometry x="560" y="1280" width="120" height="60" as="geometry" />
        </mxCell>
        <mxCell id="ASFFez9ZujurtMkVOaM4-31" value="main" style="text;html=1;align=center;verticalAlign=middle;resizable=0;points=[];autosize=1;strokeColor=none;fillColor=none;" vertex="1" parent="WIyWlLk6GJQsqaUBKTNV-1">
          <mxGeometry x="580" y="1020" width="40" height="20" as="geometry" />
        </mxCell>
        <mxCell id="ASFFez9ZujurtMkVOaM4-30" value="onBorading" style="text;html=1;align=center;verticalAlign=middle;resizable=0;points=[];autosize=1;strokeColor=none;fillColor=none;" vertex="1" parent="WIyWlLk6GJQsqaUBKTNV-1">
          <mxGeometry x="374" y="680" width="80" height="20" as="geometry" />
        </mxCell>
        <mxCell id="ASFFez9ZujurtMkVOaM4-34" value="" style="edgeStyle=orthogonalEdgeStyle;rounded=0;orthogonalLoop=1;jettySize=auto;html=1;endArrow=none;" edge="1" parent="WIyWlLk6GJQsqaUBKTNV-1" source="ASFFez9ZujurtMkVOaM4-20" target="ASFFez9ZujurtMkVOaM4-30">
          <mxGeometry relative="1" as="geometry">
            <mxPoint x="414" y="590" as="sourcePoint" />
            <mxPoint x="414" y="770" as="targetPoint" />
          </mxGeometry>
        </mxCell>
        <mxCell id="ASFFez9ZujurtMkVOaM4-37" value="entranceNavigator&lt;br&gt;&lt;br&gt;&lt;div style=&quot;background-color: rgb(255, 255, 255); font-family: Menlo, Monaco, &amp;quot;Courier New&amp;quot;, monospace; line-height: 18px;&quot;&gt;&lt;div&gt;&lt;span style=&quot;color: #0000ff;&quot;&gt;const&lt;/span&gt; &lt;span style=&quot;color: #267f99;&quot;&gt;entranceNavigator&lt;/span&gt; = &lt;font color=&quot;#ff0000&quot;&gt;createStackNavigator&lt;/font&gt;(&lt;span style=&quot;color: #795e26;&quot;&gt;getRouteConfigs&lt;/span&gt;(&lt;span style=&quot;color: #a31515;&quot;&gt;&#39;entrance&#39;&lt;/span&gt;), {&lt;/div&gt;&lt;div&gt;  &lt;span style=&quot;color: #001080;&quot;&gt;headerMode&lt;/span&gt;&lt;span style=&quot;color: #001080;&quot;&gt;:&lt;/span&gt; &lt;span style=&quot;color: #a31515;&quot;&gt;&#39;none&#39;&lt;/span&gt;&lt;/div&gt;&lt;div&gt;});&lt;/div&gt;&lt;/div&gt;" style="whiteSpace=wrap;html=1;align=left;rounded=1;" vertex="1" parent="WIyWlLk6GJQsqaUBKTNV-1">
          <mxGeometry x="800" y="980" width="120" height="270" as="geometry" />
        </mxCell>
        <mxCell id="ASFFez9ZujurtMkVOaM4-39" value="CommonUIStack&lt;br&gt;&lt;br&gt;&lt;div style=&quot;background-color: rgb(255, 255, 255); font-family: Menlo, Monaco, &amp;quot;Courier New&amp;quot;, monospace; line-height: 18px;&quot;&gt;&lt;div&gt;&lt;span style=&quot;color: #0000ff;&quot;&gt;const&lt;/span&gt; &lt;span style=&quot;color: #267f99;&quot;&gt;CommonUIStack&lt;/span&gt; = &lt;font color=&quot;#ff0000&quot;&gt;createStackNavigator&lt;/font&gt;(&lt;span style=&quot;color: #795e26;&quot;&gt;getRouteConfigs&lt;/span&gt;(&lt;span style=&quot;color: #a31515;&quot;&gt;&#39;commonUI&#39;&lt;/span&gt;), {&lt;/div&gt;&lt;div&gt;  &lt;span style=&quot;color: #001080;&quot;&gt;headerMode&lt;/span&gt;&lt;span style=&quot;color: #001080;&quot;&gt;:&lt;/span&gt; &lt;span style=&quot;color: #a31515;&quot;&gt;&#39;none&#39;&lt;/span&gt;,&lt;/div&gt;&lt;div&gt;  &lt;span style=&quot;color: #795e26;&quot;&gt;navigationOptions&lt;/span&gt;&lt;span style=&quot;color: #001080;&quot;&gt;:&lt;/span&gt; ({ &lt;span style=&quot;color: #001080;&quot;&gt;navigation&lt;/span&gt; }) &lt;span style=&quot;color: #0000ff;&quot;&gt;=&amp;gt;&lt;/span&gt; {&lt;/div&gt;&lt;div&gt;    &lt;span style=&quot;color: #0000ff;&quot;&gt;let&lt;/span&gt; &lt;span style=&quot;color: #001080;&quot;&gt;tabBarVisible&lt;/span&gt; = &lt;span style=&quot;color: #0000ff;&quot;&gt;true&lt;/span&gt;;&lt;/div&gt;&lt;div&gt;    &lt;span style=&quot;color: #af00db;&quot;&gt;if&lt;/span&gt; (&lt;span style=&quot;color: #001080;&quot;&gt;navigation&lt;/span&gt;.&lt;span style=&quot;color: #001080;&quot;&gt;state&lt;/span&gt;.&lt;span style=&quot;color: #001080;&quot;&gt;index&lt;/span&gt; &amp;gt; &lt;span style=&quot;color: #098658;&quot;&gt;0&lt;/span&gt;) {&lt;/div&gt;&lt;div&gt;      &lt;span style=&quot;color: #001080;&quot;&gt;tabBarVisible&lt;/span&gt; = &lt;span style=&quot;color: #0000ff;&quot;&gt;false&lt;/span&gt;;&lt;/div&gt;&lt;div&gt;    }&lt;/div&gt;&lt;div&gt;    &lt;span style=&quot;color: #af00db;&quot;&gt;return&lt;/span&gt; {&lt;/div&gt;&lt;div&gt;      &lt;span style=&quot;color: #001080;&quot;&gt;tabBarVisible&lt;/span&gt;&lt;/div&gt;&lt;div&gt;    };&lt;/div&gt;&lt;div&gt;  },&lt;/div&gt;&lt;div&gt;  &lt;span style=&quot;color: #001080;&quot;&gt;initialRouteName&lt;/span&gt;&lt;span style=&quot;color: #001080;&quot;&gt;:&lt;/span&gt; &lt;span style=&quot;color: #a31515;&quot;&gt;&#39;CommonUI&#39;&lt;/span&gt;&lt;/div&gt;&lt;div&gt;});&lt;/div&gt;&lt;/div&gt;" style="whiteSpace=wrap;html=1;align=left;rounded=1;" vertex="1" parent="WIyWlLk6GJQsqaUBKTNV-1">
          <mxGeometry x="1230" y="970" width="120" height="310" as="geometry" />
        </mxCell>
        <mxCell id="ASFFez9ZujurtMkVOaM4-41" value="&lt;div style=&quot;color: rgb(0, 0, 0); background-color: rgb(255, 255, 255); font-family: Menlo, Monaco, &amp;quot;Courier New&amp;quot;, monospace; line-height: 18px;&quot;&gt;&lt;span style=&quot;color: #267f99;&quot;&gt;entrance&lt;/span&gt;&lt;/div&gt;" style="text;html=1;align=center;verticalAlign=middle;resizable=0;points=[];autosize=1;strokeColor=none;fillColor=none;fontColor=#3333FF;" vertex="1" parent="WIyWlLk6GJQsqaUBKTNV-1">
          <mxGeometry x="827" y="910" width="70" height="20" as="geometry" />
        </mxCell>
        <mxCell id="ASFFez9ZujurtMkVOaM4-42" value="&lt;meta charset=&quot;utf-8&quot;&gt;&lt;div style=&quot;color: rgb(0, 0, 0); background-color: rgb(255, 255, 255); font-family: Menlo, Monaco, &amp;quot;Courier New&amp;quot;, monospace; font-weight: normal; font-size: 12px; line-height: 18px;&quot;&gt;&lt;div&gt;&lt;span style=&quot;color: #267f99;&quot;&gt;commonUI&lt;/span&gt;&lt;/div&gt;&lt;/div&gt;" style="text;whiteSpace=wrap;html=1;fontColor=#3333FF;" vertex="1" parent="WIyWlLk6GJQsqaUBKTNV-1">
          <mxGeometry x="1250" y="880" width="80" height="30" as="geometry" />
        </mxCell>
        <mxCell id="ASFFez9ZujurtMkVOaM4-43" value="&lt;div style=&quot;background-color: rgb(255, 255, 255); font-family: Menlo, Monaco, &amp;quot;Courier New&amp;quot;, monospace; line-height: 18px;&quot;&gt;&lt;span style=&quot;color: #267f99;&quot;&gt;onBoardingMainNavigator&lt;br&gt;&lt;br&gt;&lt;/span&gt;&lt;div style=&quot;line-height: 18px;&quot;&gt;&lt;div&gt;&lt;span style=&quot;color: #0000ff;&quot;&gt;const&lt;/span&gt; &lt;span style=&quot;color: #267f99;&quot;&gt;onBoardingMainNavigator&lt;/span&gt; = &lt;font color=&quot;#ff0000&quot;&gt;createStackNavigator&lt;/font&gt;(&lt;span style=&quot;color: #795e26;&quot;&gt;getRouteConfigs&lt;/span&gt;(&lt;span style=&quot;color: #a31515;&quot;&gt;&#39;onBoarding&#39;&lt;/span&gt;), {&lt;/div&gt;&lt;div&gt;  &lt;span style=&quot;color: #001080;&quot;&gt;headerMode&lt;/span&gt;&lt;span style=&quot;color: #001080;&quot;&gt;:&lt;/span&gt; &lt;span style=&quot;color: #a31515;&quot;&gt;&#39;none&#39;&lt;/span&gt;&lt;/div&gt;&lt;div&gt;});&lt;/div&gt;&lt;/div&gt;&lt;/div&gt;" style="whiteSpace=wrap;html=1;align=left;rounded=1;" vertex="1" parent="WIyWlLk6GJQsqaUBKTNV-1">
          <mxGeometry x="-390" y="940" width="120" height="60" as="geometry" />
        </mxCell>
        <mxCell id="ASFFez9ZujurtMkVOaM4-45" value="&lt;div style=&quot;color: rgb(0, 0, 0); background-color: rgb(255, 255, 255); font-family: Menlo, Monaco, &amp;quot;Courier New&amp;quot;, monospace; line-height: 18px;&quot;&gt;&lt;span style=&quot;color: #001080;&quot;&gt;onBoardingMain&lt;/span&gt;&lt;/div&gt;" style="text;html=1;align=center;verticalAlign=middle;resizable=0;points=[];autosize=1;strokeColor=none;fillColor=none;fontColor=#3333FF;" vertex="1" parent="WIyWlLk6GJQsqaUBKTNV-1">
          <mxGeometry x="-400" y="830" width="120" height="20" as="geometry" />
        </mxCell>
        <mxCell id="ASFFez9ZujurtMkVOaM4-46" value="&lt;div style=&quot;background-color: rgb(255, 255, 255); font-family: Menlo, Monaco, &amp;quot;Courier New&amp;quot;, monospace; line-height: 18px;&quot;&gt;&lt;span style=&quot;color: #267f99;&quot;&gt;onBoardingModalNavigator&lt;br&gt;&lt;br&gt;&lt;/span&gt;&lt;div style=&quot;line-height: 18px;&quot;&gt;&lt;div&gt;&lt;span style=&quot;color: #008000;&quot;&gt;/** on boarding modal */&lt;/span&gt;&lt;/div&gt;&lt;div&gt;&lt;span style=&quot;color: #0000ff;&quot;&gt;const&lt;/span&gt; &lt;span style=&quot;color: #267f99;&quot;&gt;onBoardingModalNavigator&lt;/span&gt; = &lt;font color=&quot;#ff0000&quot;&gt;createStackNavigator&lt;/font&gt;(&lt;/div&gt;&lt;div&gt;  &lt;span style=&quot;color: #795e26;&quot;&gt;getSpecificRouteConfigs&lt;/span&gt;(&lt;span style=&quot;color: #a31515;&quot;&gt;&#39;onBoarding&#39;&lt;/span&gt;, [&lt;/div&gt;&lt;div&gt;    &lt;span style=&quot;color: #a31515;&quot;&gt;&#39;TaxResidencyScreen&#39;&lt;/span&gt;,&lt;/div&gt;&lt;div&gt;    &lt;span style=&quot;color: #a31515;&quot;&gt;&#39;ResidenceAddressScreen&#39;&lt;/span&gt;,&lt;/div&gt;&lt;div&gt;    &lt;span style=&quot;color: #a31515;&quot;&gt;&#39;UploadProofScreen&#39;&lt;/span&gt;,&lt;/div&gt;&lt;div&gt;    &lt;span style=&quot;color: #a31515;&quot;&gt;&#39;PersonalInfo&#39;&lt;/span&gt;,&lt;/div&gt;&lt;div&gt;    &lt;span style=&quot;color: #a31515;&quot;&gt;&#39;OccupationAndIncome&#39;&lt;/span&gt;,&lt;/div&gt;&lt;div&gt;    &lt;span style=&quot;color: #a31515;&quot;&gt;&#39;SetupQuestionnaire&#39;&lt;/span&gt;,&lt;/div&gt;&lt;div&gt;    &lt;span style=&quot;color: #a31515;&quot;&gt;&#39;InvestorProof&#39;&lt;/span&gt;&lt;/div&gt;&lt;div&gt;  ]),&lt;/div&gt;&lt;div&gt;  {&lt;/div&gt;&lt;div&gt;    &lt;span style=&quot;color: #001080;&quot;&gt;headerMode&lt;/span&gt;&lt;span style=&quot;color: #001080;&quot;&gt;:&lt;/span&gt; &lt;span style=&quot;color: #a31515;&quot;&gt;&#39;none&#39;&lt;/span&gt;&lt;/div&gt;&lt;div&gt;  }&lt;/div&gt;&lt;div&gt;);&lt;/div&gt;&lt;/div&gt;&lt;/div&gt;" style="whiteSpace=wrap;html=1;align=left;rounded=1;arcSize=27;" vertex="1" parent="WIyWlLk6GJQsqaUBKTNV-1">
          <mxGeometry x="248" y="1109" width="226" height="60" as="geometry" />
        </mxCell>
      </root>
    </mxGraphModel>
  </diagram>
</mxfile>
